<svg xmlns="http://www.w3.org/2000/svg" width="192" height="192" viewBox="0 0 192 192">
    <path
        d="M118,22L118,24C127.827,27.582 138.538,27.292 145.146,37.015C150.669,45.142 147.161,55.049 143.244,63C133.765,82.242 117.297,96.385 97,103C98.118,96.981 97.507,91.021 98.289,85C99.931,72.362 106.439,55.934 99.005,44.001C93.171,34.634 80.442,31.25 70,32.093C66.436,32.381 59.954,33.587 58.327,37.336C57.245,39.83 59.338,41.674 61.048,43.139C65.396,46.866 68.809,50.66 71.12,56C77.876,71.61 76,90.43 76,107C60.896,107 29.581,107.874 27.189,87C25.894,75.701 33.735,63.947 37.999,54C40.002,49.328 42.078,45.199 41.395,40C40.538,33.47 37.16,23.035 29.044,22.623C22.127,22.271 24.007,33.766 24,38C23.989,44.62 23.365,51.608 21.572,58C18.436,69.178 13.334,80.076 15.326,92C19.78,118.663 55.532,118 76,118C72.201,132.552 57.404,130.998 48.153,139.532C42.225,145.001 49.831,148.698 55,148.96C57.326,149.078 59.672,149 62,149L74,149C74,157.366 73.407,166.3 77.378,173.985C79.591,178.267 83.455,181.164 87.363,176.768C90.426,173.322 92.873,167.509 93.671,163C94.445,158.627 93.544,153.749 98.109,151.179C101.258,149.406 105.532,150.016 109,149.999C114.371,149.973 119.621,149.009 125,149C128.305,148.994 132.961,149.739 135.677,147.397C140.86,142.928 133.618,137.022 129.996,134.711C120.259,128.497 108.177,128 97,128C97.028,124.932 96.911,121.753 98.742,119.108C101.475,115.161 106.72,114.099 111,112.667C117.632,110.447 123.89,107.626 130,104.218C148.164,94.089 170.54,73.733 176.076,53C177.365,48.175 178.085,42.992 177.985,38C177.916,34.558 177.367,31.205 176.069,28C168.887,10.258 145.386,9.394 130,15.465C125.738,17.146 121.986,19.79 118,22z"
        fill="#ff033b" stroke="#00000000" />
</svg>
